<svg class="main-svg" xmlns="http://www.w3.org/2000/svg" xmlns:xlink="http://www.w3.org/1999/xlink" width="700" height="500" style="" viewBox="0 0 700 500"><rect x="0" y="0" width="700" height="500" style="fill: rgb(255, 255, 255); fill-opacity: 1;"/><defs id="defs-1f7196"><g class="clips"><clipPath id="clip1f7196xyplot" class="plotclip"><rect width="577" height="448"/></clipPath><clipPath class="axesclip" id="clip1f7196x"><rect x="73" y="0" width="577" height="500"/></clipPath><clipPath class="axesclip" id="clip1f7196y"><rect x="0" y="0" width="700" height="448"/></clipPath><clipPath class="axesclip" id="clip1f7196xy"><rect x="73" y="0" width="577" height="448"/></clipPath></g><g class="gradients"/><g class="patterns"/></defs><g class="bglayer"/><g class="layer-below"><g class="imagelayer"/><g class="shapelayer"/></g><g class="cartesianlayer"><g class="subplot xy"><g class="layer-subplot"><g class="shapelayer"/><g class="imagelayer"/></g><g class="minor-gridlayer"><g class="x"/><g class="y"/></g><g class="gridlayer"><g class="x"><path class="xgrid crisp" transform="translate(188.4,0)" d="M0,0v448" style="stroke: rgb(211, 211, 211); stroke-opacity: 1; stroke-width: 1px;"/><path class="xgrid crisp" transform="translate(361.5,0)" d="M0,0v448" style="stroke: rgb(211, 211, 211); stroke-opacity: 1; stroke-width: 1px;"/><path class="xgrid crisp" transform="translate(534.6,0)" d="M0,0v448" style="stroke: rgb(211, 211, 211); stroke-opacity: 1; stroke-width: 1px;"/></g><g class="y"><path class="ygrid crisp" transform="translate(0,446.04)" d="M73,0h577" style="stroke: rgb(211, 211, 211); stroke-opacity: 1; stroke-width: 1px;"/><path class="ygrid crisp" transform="translate(0,399.95)" d="M73,0h577" style="stroke: rgb(211, 211, 211); stroke-opacity: 1; stroke-width: 1px;"/><path class="ygrid crisp" transform="translate(0,353.86)" d="M73,0h577" style="stroke: rgb(211, 211, 211); stroke-opacity: 1; stroke-width: 1px;"/><path class="ygrid crisp" transform="translate(0,307.77)" d="M73,0h577" style="stroke: rgb(211, 211, 211); stroke-opacity: 1; stroke-width: 1px;"/><path class="ygrid crisp" transform="translate(0,261.69)" d="M73,0h577" style="stroke: rgb(211, 211, 211); stroke-opacity: 1; stroke-width: 1px;"/><path class="ygrid crisp" transform="translate(0,215.6)" d="M73,0h577" style="stroke: rgb(211, 211, 211); stroke-opacity: 1; stroke-width: 1px;"/><path class="ygrid crisp" transform="translate(0,169.51)" d="M73,0h577" style="stroke: rgb(211, 211, 211); stroke-opacity: 1; stroke-width: 1px;"/><path class="ygrid crisp" transform="translate(0,123.43)" d="M73,0h577" style="stroke: rgb(211, 211, 211); stroke-opacity: 1; stroke-width: 1px;"/><path class="ygrid crisp" transform="translate(0,77.34)" d="M73,0h577" style="stroke: rgb(211, 211, 211); stroke-opacity: 1; stroke-width: 1px;"/><path class="ygrid crisp" transform="translate(0,31.25)" d="M73,0h577" style="stroke: rgb(211, 211, 211); stroke-opacity: 1; stroke-width: 1px;"/></g></g><g class="zerolinelayer"/><path class="xlines-below"/><path class="ylines-below"/><g class="overlines-below"/><g class="xaxislayer-below"/><g class="yaxislayer-below"/><g class="overaxes-below"/><g class="plot" transform="translate(73,0)" clip-path="url(#clip1f7196xyplot)"><g class="violinlayer mlayer"><g class="trace violins" style="opacity: 1;"><path class="violin" d="M115.4,138.43L115.38,138.43Q115.38,138.54 115.37,138.59C115.36,138.64 115.35,138.7 115.34,138.75C115.33,138.8 115.32,138.86 115.31,138.91C115.3,138.96 115.28,139.02 115.27,139.07C115.25,139.12 115.24,139.18 115.22,139.23C115.2,139.28 115.19,139.34 115.17,139.39C115.15,139.44 115.13,139.5 115.11,139.55C115.09,139.6 115.08,139.66 115.06,139.71C115.04,139.76 115.02,139.81 115,139.86C114.98,139.91 114.96,139.97 114.94,140.02C114.92,140.07 114.91,140.13 114.89,140.18C114.87,140.23 114.86,140.29 114.84,140.34C114.82,140.39 114.81,140.45 114.79,140.5C114.77,140.55 114.75,140.61 114.73,140.66C114.71,140.71 114.69,140.77 114.67,140.82C114.65,140.87 114.62,140.93 114.6,140.98C114.57,141.03 114.55,141.09 114.52,141.14C114.49,141.19 114.46,141.25 114.43,141.3C114.4,141.35 114.36,141.41 114.33,141.46C114.29,141.51 114.26,141.57 114.22,141.62C114.18,141.67 114.13,141.73 114.08,141.78C114.03,141.83 113.98,141.89 113.92,141.94C113.86,142 113.78,142.05 113.71,142.1C113.64,142.15 113.56,142.21 113.48,142.26C113.39,142.31 113.3,142.37 113.21,142.42C113.12,142.47 113.03,142.53 112.94,142.58C112.85,142.63 112.76,142.69 112.67,142.74C112.58,142.79 112.49,142.85 112.4,142.9C112.31,142.95 112.22,143 112.13,143.05C112.04,143.1 111.95,143.16 111.85,143.21C111.75,143.26 111.65,143.32 111.55,143.37C111.45,143.42 111.34,143.48 111.23,143.53C111.13,143.58 111.02,143.64 110.92,143.69C110.82,143.74 110.72,143.8 110.63,143.85C110.54,143.9 110.45,143.96 110.37,144.01C110.29,144.06 110.21,144.12 110.13,144.17C110.05,144.22 109.97,144.28 109.88,144.33C109.78,144.39 109.68,144.44 109.57,144.49C109.44,144.55 109.31,144.6 109.16,144.65C109,144.71 108.82,144.76 108.63,144.81C108.42,144.87 108.19,144.92 107.95,144.97C107.69,145.03 107.42,145.08 107.14,145.13C106.85,145.18 106.54,145.24 106.23,145.29C105.92,145.34 105.6,145.4 105.28,145.45C104.96,145.5 104.63,145.56 104.3,145.61C103.98,145.66 103.65,145.72 103.33,145.77C103.01,145.82 102.69,145.88 102.36,145.93C102.03,145.98 101.7,146.04 101.37,146.09C101.03,146.14 100.69,146.19 100.34,146.24C99.98,146.29 99.62,146.35 99.24,146.4C98.84,146.45 98.44,146.51 98.02,146.56C97.57,146.62 97.11,146.67 96.64,146.72C96.14,146.78 95.61,146.83 95.08,146.88C94.52,146.93 93.94,146.99 93.37,147.04C92.79,147.09 92.2,147.15 91.62,147.2C91.05,147.25 90.48,147.31 89.93,147.36C89.4,147.41 88.89,147.46 88.39,147.52C87.93,147.57 87.48,147.62 87.05,147.68C86.66,147.73 86.28,147.78 85.92,147.84C85.59,147.89 85.27,147.94 84.98,148C84.73,148.05 84.48,148.1 84.27,148.16C84.1,148.21 83.92,148.25 83.81,148.32C83.74,148.37 83.65,148.43 83.65,148.48C83.65,148.53 83.73,148.59 83.81,148.64C83.92,148.71 84.11,148.75 84.3,148.8C84.53,148.86 84.82,148.91 85.11,148.96C85.45,149.02 85.81,149.07 86.2,149.12C86.63,149.18 87.1,149.22 87.58,149.27C88.1,149.32 88.65,149.38 89.22,149.43C89.83,149.49 90.46,149.54 91.11,149.59C91.79,149.64 92.5,149.7 93.22,149.75C93.96,149.8 94.73,149.86 95.49,149.91C96.27,149.96 97.06,150.02 97.85,150.07C98.64,150.12 99.43,150.18 100.21,150.23C100.97,150.28 101.74,150.34 102.48,150.39C103.2,150.44 103.91,150.5 104.61,150.55C105.28,150.6 105.94,150.66 106.57,150.71C107.17,150.76 107.75,150.82 108.32,150.87C108.86,150.92 109.38,150.97 109.88,151.03C110.35,151.08 110.8,151.13 111.23,151.19C111.63,151.24 112.02,151.29 112.38,151.35C112.71,151.4 113.03,151.45 113.32,151.51C113.58,151.56 113.83,151.61 114.05,151.67C114.24,151.72 114.42,151.77 114.58,151.83C114.71,151.88 114.84,151.93 114.94,151.99C115.03,152.04 115.1,152.09 115.16,152.15Q115.21,152.2 115.29,152.31L115.4,152.31" style="vector-effect: non-scaling-stroke; stroke-width: 2px; stroke: rgb(0, 0, 255); stroke-opacity: 1; fill: rgb(0, 0, 255); fill-opacity: 0.5;"/><path class="violin" d="M288.5,176.32L288.45,176.32Q288.43,176.41 288.41,176.45C288.39,176.5 288.36,176.54 288.33,176.59C288.3,176.64 288.26,176.68 288.22,176.73C288.18,176.78 288.13,176.83 288.08,176.87C288.03,176.92 287.97,176.96 287.92,177C287.87,177.05 287.81,177.09 287.76,177.14C287.71,177.19 287.66,177.23 287.61,177.28C287.57,177.32 287.53,177.37 287.49,177.41C287.45,177.46 287.42,177.5 287.38,177.55C287.35,177.6 287.32,177.64 287.28,177.69C287.24,177.74 287.2,177.79 287.16,177.83C287.11,177.88 287.06,177.92 287.01,177.96C286.95,178.01 286.89,178.05 286.82,178.1C286.75,178.15 286.68,178.2 286.6,178.24C286.52,178.29 286.42,178.33 286.33,178.37C286.23,178.42 286.13,178.46 286.02,178.51C285.91,178.56 285.79,178.6 285.67,178.65C285.54,178.7 285.41,178.75 285.28,178.79C285.14,178.84 285,178.88 284.85,178.92C284.69,178.97 284.54,179.01 284.37,179.06C284.19,179.11 284.01,179.16 283.82,179.2C283.6,179.25 283.37,179.3 283.13,179.34C282.86,179.39 282.56,179.43 282.25,179.47C281.9,179.52 281.53,179.57 281.15,179.61C280.73,179.66 280.28,179.71 279.83,179.75C279.35,179.8 278.85,179.84 278.35,179.88C277.84,179.93 277.32,179.97 276.81,180.02C276.3,180.07 275.79,180.11 275.29,180.16C274.8,180.21 274.32,180.25 273.84,180.3C273.37,180.34 272.92,180.38 272.46,180.43C272.01,180.47 271.56,180.52 271.11,180.57C270.66,180.62 270.21,180.66 269.77,180.71C269.33,180.76 268.89,180.8 268.45,180.85C268.02,180.89 267.58,180.93 267.15,180.98C266.73,181.02 266.32,181.07 265.91,181.12C265.51,181.17 265.12,181.21 264.73,181.26C264.34,181.3 263.97,181.35 263.58,181.39C263.18,181.44 262.79,181.48 262.38,181.53C261.96,181.58 261.53,181.62 261.09,181.67C260.64,181.72 260.17,181.77 259.7,181.81C259.22,181.86 258.72,181.89 258.24,181.94C257.76,181.98 257.27,182.03 256.8,182.08C256.34,182.13 255.88,182.17 255.45,182.22C255.04,182.26 254.64,182.3 254.27,182.35C253.93,182.39 253.6,182.44 253.3,182.49C253.05,182.53 252.79,182.57 252.6,182.63C252.46,182.67 252.27,182.71 252.23,182.77C252.21,182.81 252.22,182.86 252.25,182.9C252.31,182.97 252.51,183 252.68,183.04C252.91,183.1 253.21,183.14 253.51,183.18C253.88,183.23 254.3,183.28 254.73,183.32C255.23,183.37 255.77,183.41 256.33,183.45C256.95,183.5 257.62,183.55 258.31,183.59C259.06,183.64 259.85,183.69 260.65,183.73C261.49,183.78 262.37,183.82 263.25,183.86C264.15,183.91 265.07,183.95 265.97,184C266.86,184.05 267.77,184.09 268.64,184.14C269.48,184.19 270.31,184.23 271.11,184.28C271.86,184.32 272.6,184.36 273.3,184.41C273.95,184.45 274.59,184.5 275.19,184.55C275.75,184.59 276.28,184.64 276.8,184.69C277.28,184.73 277.74,184.77 278.19,184.82C278.61,184.86 279.01,184.91 279.4,184.96C279.77,185.01 280.13,185.05 280.48,185.1C280.82,185.15 281.15,185.19 281.48,185.24C281.8,185.28 282.12,185.32 282.43,185.37C282.74,185.41 283.05,185.46 283.36,185.51C283.67,185.56 283.98,185.6 284.28,185.65C284.57,185.7 284.86,185.74 285.15,185.79C285.43,185.83 285.71,185.87 285.97,185.92C286.22,185.96 286.46,186.01 286.69,186.06C286.9,186.1 287.1,186.15 287.28,186.2C287.44,186.24 287.6,186.28 287.74,186.33C287.86,186.37 287.97,186.42 288.06,186.47C288.14,186.51 288.21,186.56 288.27,186.61Q288.32,186.65 288.39,186.75L288.5,186.75" style="vector-effect: non-scaling-stroke; stroke-width: 2px; stroke: rgb(0, 0, 255); stroke-opacity: 1; fill: rgb(0, 0, 255); fill-opacity: 0.5;"/><path class="violin" d="M461.6,420.64L461.53,420.64Q461.49,420.68 461.46,420.7C461.43,420.72 461.38,420.73 461.34,420.75C461.29,420.77 461.24,420.78 461.18,420.8C461.11,420.82 461.04,420.84 460.97,420.86C460.89,420.88 460.81,420.89 460.73,420.91C460.65,420.93 460.57,420.94 460.5,420.96C460.43,420.98 460.36,421 460.3,421.02C460.25,421.04 460.21,421.05 460.18,421.07C460.16,421.08 460.14,421.1 460.14,421.12C460.14,421.14 460.17,421.16 460.19,421.18C460.22,421.2 460.26,421.21 460.3,421.23C460.34,421.25 460.4,421.26 460.44,421.28C460.48,421.3 460.53,421.32 460.56,421.34C460.58,421.36 460.61,421.37 460.62,421.39C460.63,421.41 460.63,421.42 460.62,421.44C460.61,421.46 460.58,421.48 460.55,421.5C460.52,421.52 460.49,421.53 460.46,421.55C460.43,421.57 460.39,421.58 460.37,421.6C460.35,421.62 460.33,421.64 460.32,421.66C460.31,421.68 460.29,421.69 460.29,421.71C460.29,421.73 460.29,421.74 460.29,421.76C460.29,421.78 460.28,421.8 460.27,421.82C460.26,421.84 460.24,421.86 460.22,421.87C460.19,421.89 460.14,421.9 460.1,421.92C460.05,421.94 459.99,421.96 459.92,421.98C459.84,422 459.75,422.01 459.65,422.03C459.54,422.05 459.41,422.06 459.28,422.08C459.12,422.1 458.95,422.12 458.77,422.14C458.57,422.16 458.35,422.17 458.13,422.19C457.89,422.21 457.63,422.22 457.37,422.24C457.1,422.26 456.81,422.28 456.53,422.3C456.25,422.32 455.96,422.33 455.67,422.35C455.38,422.37 455.09,422.38 454.79,422.4C454.49,422.42 454.19,422.44 453.88,422.46C453.56,422.48 453.23,422.49 452.89,422.51C452.52,422.53 452.14,422.54 451.75,422.56C451.33,422.58 450.89,422.6 450.43,422.62C449.94,422.64 449.43,422.65 448.91,422.67C448.36,422.69 447.8,422.7 447.23,422.72C446.63,422.74 446,422.76 445.37,422.78C444.71,422.8 444.04,422.81 443.35,422.83C442.62,422.85 441.88,422.86 441.11,422.88C440.3,422.9 439.47,422.92 438.61,422.94C437.7,422.96 436.76,422.97 435.79,422.99C434.76,423.01 433.69,423.02 432.59,423.04C431.42,423.06 430.22,423.08 428.98,423.1C427.66,423.12 426.3,423.13 424.9,423.15C423.41,423.17 421.87,423.18 420.29,423.2C418.62,423.22 416.9,423.24 415.15,423.26C413.34,423.28 411.47,423.29 409.61,423.31C407.73,423.33 405.81,423.34 403.94,423.36C402.11,423.38 400.26,423.4 398.49,423.42C396.81,423.44 395.14,423.45 393.57,423.47C392.12,423.49 390.72,423.5 389.4,423.52C388.2,423.54 387.04,423.56 385.95,423.58C384.96,423.6 384.01,423.61 383.11,423.63C382.28,423.65 381.49,423.66 380.73,423.68C380.03,423.7 379.36,423.71 378.73,423.73C378.17,423.75 377.62,423.77 377.14,423.79C376.74,423.81 376.36,423.82 376.04,423.84C375.8,423.85 375.57,423.86 375.41,423.89C375.3,423.91 375.21,423.92 375.15,423.95C375.11,423.96 375.09,423.98 375.07,424C375.06,424.01 375.04,424.04 375.05,424.05C375.06,424.08 375.13,424.09 375.19,424.11C375.32,424.14 375.55,424.15 375.79,424.16C376.17,424.18 376.7,424.19 377.27,424.21C378.03,424.23 378.98,424.25 379.96,424.27C381.15,424.29 382.52,424.3 383.91,424.32C385.48,424.34 387.19,424.35 388.9,424.37C390.71,424.39 392.62,424.41 394.49,424.43C396.39,424.45 398.33,424.46 400.21,424.48C402.05,424.5 403.88,424.51 405.66,424.53C407.36,424.55 409.03,424.57 410.65,424.59C412.19,424.61 413.68,424.62 415.14,424.64C416.53,424.66 417.89,424.67 419.22,424.69C420.51,424.71 421.76,424.73 423.01,424.75C424.24,424.77 425.45,424.78 426.66,424.8C427.87,424.82 429.06,424.83 430.27,424.85C431.48,424.87 432.7,424.89 433.92,424.91C435.15,424.93 436.38,424.94 437.61,424.96C438.84,424.98 440.08,424.99 441.3,425.01C442.51,425.03 443.72,425.05 444.91,425.07C446.07,425.09 447.21,425.1 448.33,425.12C449.4,425.14 450.46,425.15 451.47,425.17C452.41,425.19 453.34,425.21 454.21,425.23C455,425.25 455.78,425.26 456.49,425.28C457.12,425.3 457.72,425.31 458.27,425.33C458.74,425.35 459.18,425.37 459.57,425.39C459.89,425.41 460.19,425.42 460.45,425.44C460.65,425.46 460.84,425.47 461,425.49C461.12,425.51 461.22,425.53 461.31,425.55Q461.37,425.57 461.47,425.6L461.6,425.6" style="vector-effect: non-scaling-stroke; stroke-width: 2px; stroke: rgb(0, 0, 255); stroke-opacity: 1; fill: rgb(0, 0, 255); fill-opacity: 0.5;"/><path class="meanline" d="M86.8154067993164,147.71H115.4" style="fill: none; vector-effect: non-scaling-stroke; stroke-width: 2px; stroke-dasharray: 4px, 2px; stroke: rgb(0, 0, 255); stroke-opacity: 1;"/><path class="meanline" d="M254.10394287109375,182.37H288.5" style="fill: none; vector-effect: non-scaling-stroke; stroke-width: 2px; stroke-dasharray: 4px, 2px; stroke: rgb(0, 0, 255); stroke-opacity: 1;"/><path class="meanline" d="M375.4712829589844,423.88H461.6" style="fill: none; vector-effect: non-scaling-stroke; stroke-width: 2px; stroke-dasharray: 4px, 2px; stroke: rgb(0, 0, 255); stroke-opacity: 1;"/><g class="points"><path class="point" transform="translate(115.4,143.01)" d="M3,0A3,3 0 1,1 0,-3A3,3 0 0,1 3,0Z" style="opacity: 1; stroke-width: 0px; fill: rgb(0, 0, 255); fill-opacity: 1;"/><path class="point" transform="translate(115.4,142.98)" d="M3,0A3,3 0 1,1 0,-3A3,3 0 0,1 3,0Z" style="opacity: 1; stroke-width: 0px; fill: rgb(0, 0, 255); fill-opacity: 1;"/><path class="point" transform="translate(115.4,142.97)" d="M3,0A3,3 0 1,1 0,-3A3,3 0 0,1 3,0Z" style="opacity: 1; stroke-width: 0px; fill: rgb(0, 0, 255); fill-opacity: 1;"/><path class="point" transform="translate(115.4,142.95)" d="M3,0A3,3 0 1,1 0,-3A3,3 0 0,1 3,0Z" style="opacity: 1; stroke-width: 0px; fill: rgb(0, 0, 255); fill-opacity: 1;"/><path class="point" transform="translate(115.4,142.94)" d="M3,0A3,3 0 1,1 0,-3A3,3 0 0,1 3,0Z" style="opacity: 1; stroke-width: 0px; fill: rgb(0, 0, 255); fill-opacity: 1;"/><path class="point" transform="translate(115.4,142.92)" d="M3,0A3,3 0 1,1 0,-3A3,3 0 0,1 3,0Z" style="opacity: 1; stroke-width: 0px; fill: rgb(0, 0, 255); fill-opacity: 1;"/><path class="point" transform="translate(115.4,142.87)" d="M3,0A3,3 0 1,1 0,-3A3,3 0 0,1 3,0Z" style="opacity: 1; stroke-width: 0px; fill: rgb(0, 0, 255); fill-opacity: 1;"/><path class="point" transform="translate(115.4,142.81)" d="M3,0A3,3 0 1,1 0,-3A3,3 0 0,1 3,0Z" style="opacity: 1; stroke-width: 0px; fill: rgb(0, 0, 255); fill-opacity: 1;"/><path class="point" transform="translate(115.4,142.8)" d="M3,0A3,3 0 1,1 0,-3A3,3 0 0,1 3,0Z" style="opacity: 1; stroke-width: 0px; fill: rgb(0, 0, 255); fill-opacity: 1;"/><path class="point" transform="translate(115.4,142.79)" d="M3,0A3,3 0 1,1 0,-3A3,3 0 0,1 3,0Z" style="opacity: 1; stroke-width: 0px; fill: rgb(0, 0, 255); fill-opacity: 1;"/><path class="point" transform="translate(115.4,142.5)" d="M3,0A3,3 0 1,1 0,-3A3,3 0 0,1 3,0Z" style="opacity: 1; stroke-width: 0px; fill: rgb(0, 0, 255); fill-opacity: 1;"/><path class="point" transform="translate(115.4,142.47)" d="M3,0A3,3 0 1,1 0,-3A3,3 0 0,1 3,0Z" style="opacity: 1; stroke-width: 0px; fill: rgb(0, 0, 255); fill-opacity: 1;"/><path class="point" transform="translate(115.4,142.46)" d="M3,0A3,3 0 1,1 0,-3A3,3 0 0,1 3,0Z" style="opacity: 1; stroke-width: 0px; fill: rgb(0, 0, 255); fill-opacity: 1;"/><path class="point" transform="translate(115.4,142.41)" d="M3,0A3,3 0 1,1 0,-3A3,3 0 0,1 3,0Z" style="opacity: 1; stroke-width: 0px; fill: rgb(0, 0, 255); fill-opacity: 1;"/><path class="point" transform="translate(115.4,142.34)" d="M3,0A3,3 0 1,1 0,-3A3,3 0 0,1 3,0Z" style="opacity: 1; stroke-width: 0px; fill: rgb(0, 0, 255); fill-opacity: 1;"/><path class="point" transform="translate(115.4,142.3)" d="M3,0A3,3 0 1,1 0,-3A3,3 0 0,1 3,0Z" style="opacity: 1; stroke-width: 0px; fill: rgb(0, 0, 255); fill-opacity: 1;"/><path class="point" transform="translate(115.4,142.25)" d="M3,0A3,3 0 1,1 0,-3A3,3 0 0,1 3,0Z" style="opacity: 1; stroke-width: 0px; fill: rgb(0, 0, 255); fill-opacity: 1;"/><path class="point" transform="translate(115.4,142.22)" d="M3,0A3,3 0 1,1 0,-3A3,3 0 0,1 3,0Z" style="opacity: 1; stroke-width: 0px; fill: rgb(0, 0, 255); fill-opacity: 1;"/><path class="point" transform="translate(115.4,142.07)" d="M3,0A3,3 0 1,1 0,-3A3,3 0 0,1 3,0Z" style="opacity: 1; stroke-width: 0px; fill: rgb(0, 0, 255); fill-opacity: 1;"/><path class="point" transform="translate(115.4,141.86)" d="M3,0A3,3 0 1,1 0,-3A3,3 0 0,1 3,0Z" style="opacity: 1; stroke-width: 0px; fill: rgb(0, 0, 255); fill-opacity: 1;"/><path class="point" transform="translate(115.4,141.7)" d="M3,0A3,3 0 1,1 0,-3A3,3 0 0,1 3,0Z" style="opacity: 1; stroke-width: 0px; fill: rgb(0, 0, 255); fill-opacity: 1;"/><path class="point" transform="translate(115.4,141.51)" d="M3,0A3,3 0 1,1 0,-3A3,3 0 0,1 3,0Z" style="opacity: 1; stroke-width: 0px; fill: rgb(0, 0, 255); fill-opacity: 1;"/><path class="point" transform="translate(115.4,141.5)" d="M3,0A3,3 0 1,1 0,-3A3,3 0 0,1 3,0Z" style="opacity: 1; stroke-width: 0px; fill: rgb(0, 0, 255); fill-opacity: 1;"/><path class="point" transform="translate(115.4,141.48)" d="M3,0A3,3 0 1,1 0,-3A3,3 0 0,1 3,0Z" style="opacity: 1; stroke-width: 0px; fill: rgb(0, 0, 255); fill-opacity: 1;"/><path class="point" transform="translate(115.4,141.33)" d="M3,0A3,3 0 1,1 0,-3A3,3 0 0,1 3,0Z" style="opacity: 1; stroke-width: 0px; fill: rgb(0, 0, 255); fill-opacity: 1;"/><path class="point" transform="translate(115.4,141.02)" d="M3,0A3,3 0 1,1 0,-3A3,3 0 0,1 3,0Z" style="opacity: 1; stroke-width: 0px; fill: rgb(0, 0, 255); fill-opacity: 1;"/><path class="point" transform="translate(115.4,140.83)" d="M3,0A3,3 0 1,1 0,-3A3,3 0 0,1 3,0Z" style="opacity: 1; stroke-width: 0px; fill: rgb(0, 0, 255); fill-opacity: 1;"/><path class="point" transform="translate(115.4,140.75)" d="M3,0A3,3 0 1,1 0,-3A3,3 0 0,1 3,0Z" style="opacity: 1; stroke-width: 0px; fill: rgb(0, 0, 255); fill-opacity: 1;"/><path class="point" transform="translate(115.4,140.28)" d="M3,0A3,3 0 1,1 0,-3A3,3 0 0,1 3,0Z" style="opacity: 1; stroke-width: 0px; fill: rgb(0, 0, 255); fill-opacity: 1;"/><path class="point" transform="translate(115.4,140.26)" d="M3,0A3,3 0 1,1 0,-3A3,3 0 0,1 3,0Z" style="opacity: 1; stroke-width: 0px; fill: rgb(0, 0, 255); fill-opacity: 1;"/><path class="point" transform="translate(115.4,139.91)" d="M3,0A3,3 0 1,1 0,-3A3,3 0 0,1 3,0Z" style="opacity: 1; stroke-width: 0px; fill: rgb(0, 0, 255); fill-opacity: 1;"/><path class="point" transform="translate(115.4,139.39)" d="M3,0A3,3 0 1,1 0,-3A3,3 0 0,1 3,0Z" style="opacity: 1; stroke-width: 0px; fill: rgb(0, 0, 255); fill-opacity: 1;"/></g><g class="points"><path class="point" transform="translate(288.5,178.14)" d="M3,0A3,3 0 1,1 0,-3A3,3 0 0,1 3,0Z" style="opacity: 1; stroke-width: 0px; fill: rgb(0, 0, 255); fill-opacity: 1;"/><path class="point" transform="translate(288.5,178.09)" d="M3,0A3,3 0 1,1 0,-3A3,3 0 0,1 3,0Z" style="opacity: 1; stroke-width: 0px; fill: rgb(0, 0, 255); fill-opacity: 1;"/><path class="point" transform="translate(288.5,177.89)" d="M3,0A3,3 0 1,1 0,-3A3,3 0 0,1 3,0Z" style="opacity: 1; stroke-width: 0px; fill: rgb(0, 0, 255); fill-opacity: 1;"/><path class="point" transform="translate(288.5,177.88)" d="M3,0A3,3 0 1,1 0,-3A3,3 0 0,1 3,0Z" style="opacity: 1; stroke-width: 0px; fill: rgb(0, 0, 255); fill-opacity: 1;"/><path class="point" transform="translate(288.5,177.67)" d="M3,0A3,3 0 1,1 0,-3A3,3 0 0,1 3,0Z" style="opacity: 1; stroke-width: 0px; fill: rgb(0, 0, 255); fill-opacity: 1;"/><path class="point" transform="translate(288.5,177.5)" d="M3,0A3,3 0 1,1 0,-3A3,3 0 0,1 3,0Z" style="opacity: 1; stroke-width: 0px; fill: rgb(0, 0, 255); fill-opacity: 1;"/><path class="point" transform="translate(288.5,177.4)" d="M3,0A3,3 0 1,1 0,-3A3,3 0 0,1 3,0Z" style="opacity: 1; stroke-width: 0px; fill: rgb(0, 0, 255); fill-opacity: 1;"/><path class="point" transform="translate(288.5,177.33)" d="M3,0A3,3 0 1,1 0,-3A3,3 0 0,1 3,0Z" style="opacity: 1; stroke-width: 0px; fill: rgb(0, 0, 255); fill-opacity: 1;"/><path class="point" transform="translate(288.5,177.2)" d="M3,0A3,3 0 1,1 0,-3A3,3 0 0,1 3,0Z" style="opacity: 1; stroke-width: 0px; fill: rgb(0, 0, 255); fill-opacity: 1;"/><path class="point" transform="translate(288.5,177.15)" d="M3,0A3,3 0 1,1 0,-3A3,3 0 0,1 3,0Z" style="opacity: 1; stroke-width: 0px; fill: rgb(0, 0, 255); fill-opacity: 1;"/></g><g class="points"><path class="point" transform="translate(461.6,422.26)" d="M3,0A3,3 0 1,1 0,-3A3,3 0 0,1 3,0Z" style="opacity: 1; stroke-width: 0px; fill: rgb(0, 0, 255); fill-opacity: 1;"/><path class="point" transform="translate(461.6,422.26)" d="M3,0A3,3 0 1,1 0,-3A3,3 0 0,1 3,0Z" style="opacity: 1; stroke-width: 0px; fill: rgb(0, 0, 255); fill-opacity: 1;"/><path class="point" transform="translate(461.6,422.25)" d="M3,0A3,3 0 1,1 0,-3A3,3 0 0,1 3,0Z" style="opacity: 1; stroke-width: 0px; fill: rgb(0, 0, 255); fill-opacity: 1;"/><path class="point" transform="translate(461.6,422.07)" d="M3,0A3,3 0 1,1 0,-3A3,3 0 0,1 3,0Z" style="opacity: 1; stroke-width: 0px; fill: rgb(0, 0, 255); fill-opacity: 1;"/><path class="point" transform="translate(461.6,422.02)" d="M3,0A3,3 0 1,1 0,-3A3,3 0 0,1 3,0Z" style="opacity: 1; stroke-width: 0px; fill: rgb(0, 0, 255); fill-opacity: 1;"/><path class="point" transform="translate(461.6,421.99)" d="M3,0A3,3 0 1,1 0,-3A3,3 0 0,1 3,0Z" style="opacity: 1; stroke-width: 0px; fill: rgb(0, 0, 255); fill-opacity: 1;"/><path class="point" transform="translate(461.6,421.79)" d="M3,0A3,3 0 1,1 0,-3A3,3 0 0,1 3,0Z" style="opacity: 1; stroke-width: 0px; fill: rgb(0, 0, 255); fill-opacity: 1;"/><path class="point" transform="translate(461.6,421.72)" d="M3,0A3,3 0 1,1 0,-3A3,3 0 0,1 3,0Z" style="opacity: 1; stroke-width: 0px; fill: rgb(0, 0, 255); fill-opacity: 1;"/><path class="point" transform="translate(461.6,421.58)" d="M3,0A3,3 0 1,1 0,-3A3,3 0 0,1 3,0Z" style="opacity: 1; stroke-width: 0px; fill: rgb(0, 0, 255); fill-opacity: 1;"/><path class="point" transform="translate(461.6,421.55)" d="M3,0A3,3 0 1,1 0,-3A3,3 0 0,1 3,0Z" style="opacity: 1; stroke-width: 0px; fill: rgb(0, 0, 255); fill-opacity: 1;"/><path class="point" transform="translate(461.6,421.23)" d="M3,0A3,3 0 1,1 0,-3A3,3 0 0,1 3,0Z" style="opacity: 1; stroke-width: 0px; fill: rgb(0, 0, 255); fill-opacity: 1;"/><path class="point" transform="translate(461.6,421.22)" d="M3,0A3,3 0 1,1 0,-3A3,3 0 0,1 3,0Z" style="opacity: 1; stroke-width: 0px; fill: rgb(0, 0, 255); fill-opacity: 1;"/><path class="point" transform="translate(461.6,421.1)" d="M3,0A3,3 0 1,1 0,-3A3,3 0 0,1 3,0Z" style="opacity: 1; stroke-width: 0px; fill: rgb(0, 0, 255); fill-opacity: 1;"/><path class="point" transform="translate(461.6,421.04)" d="M3,0A3,3 0 1,1 0,-3A3,3 0 0,1 3,0Z" style="opacity: 1; stroke-width: 0px; fill: rgb(0, 0, 255); fill-opacity: 1;"/><path class="point" transform="translate(461.6,420.96)" d="M3,0A3,3 0 1,1 0,-3A3,3 0 0,1 3,0Z" style="opacity: 1; stroke-width: 0px; fill: rgb(0, 0, 255); fill-opacity: 1;"/></g></g><g class="trace violins" style="opacity: 1;"><path class="violin" d="M115.4,45.29L115.61,45.29Q115.75,45.13 115.84,45.06C115.95,44.98 116.08,44.9 116.23,44.83C116.41,44.75 116.61,44.67 116.83,44.6C117.08,44.52 117.36,44.45 117.66,44.38C117.99,44.3 118.36,44.22 118.73,44.15C119.13,44.07 119.56,43.99 119.99,43.92C120.44,43.84 120.91,43.77 121.39,43.69C121.88,43.61 122.39,43.54 122.9,43.46C123.43,43.38 123.97,43.31 124.52,43.23C125.09,43.15 125.67,43.08 126.26,43C126.87,42.92 127.49,42.85 128.12,42.77C128.77,42.69 129.44,42.61 130.11,42.54C130.81,42.46 131.51,42.39 132.23,42.32C132.97,42.24 133.72,42.17 134.49,42.09C135.29,42.01 136.09,41.94 136.92,41.86C137.78,41.78 138.66,41.71 139.56,41.63C140.49,41.55 141.44,41.48 142.41,41.4C143.41,41.32 144.43,41.25 145.47,41.17C146.54,41.09 147.64,41.02 148.75,40.94C149.9,40.86 151.06,40.79 152.25,40.71C153.48,40.63 154.73,40.55 155.99,40.48C157.29,40.4 158.62,40.33 159.95,40.26C161.31,40.18 162.7,40.11 164.06,40.03C165.41,39.95 166.79,39.88 168.1,39.8C169.35,39.73 170.6,39.65 171.75,39.57C172.77,39.5 173.79,39.43 174.65,39.34C175.33,39.27 176.03,39.22 176.49,39.11C176.77,39.04 177.15,38.97 177.16,38.88C177.17,38.81 176.95,38.72 176.78,38.65C176.51,38.55 176.07,38.49 175.67,38.42C175.21,38.34 174.69,38.27 174.18,38.2C173.65,38.12 173.11,38.05 172.56,37.97C172,37.89 171.45,37.82 170.87,37.74C170.27,37.66 169.67,37.58 169.03,37.51C168.34,37.43 167.63,37.35 166.89,37.28C166.08,37.2 165.22,37.12 164.34,37.05C163.39,36.97 162.39,36.89 161.37,36.82C160.29,36.74 159.16,36.67 158.03,36.59C156.86,36.51 155.65,36.44 154.45,36.36C153.22,36.28 151.97,36.21 150.74,36.13C149.51,36.06 148.27,35.99 147.06,35.91C145.88,35.84 144.69,35.76 143.55,35.68C142.46,35.61 141.38,35.53 140.35,35.45C139.39,35.38 138.45,35.3 137.57,35.22C136.76,35.15 135.98,35.07 135.25,34.99C134.59,34.92 133.97,34.84 133.38,34.76C132.86,34.69 132.37,34.61 131.91,34.53C131.49,34.46 131.1,34.38 130.72,34.3C130.37,34.23 130.04,34.15 129.71,34.07C129.39,34 129.09,33.93 128.78,33.85C128.47,33.78 128.17,33.7 127.87,33.62C127.57,33.54 127.26,33.47 126.96,33.39C126.67,33.31 126.37,33.24 126.09,33.16C125.82,33.08 125.55,33.01 125.29,32.93C125.05,32.86 124.82,32.78 124.6,32.7C124.4,32.63 124.2,32.55 124.02,32.47C123.86,32.4 123.71,32.32 123.56,32.24C123.42,32.17 123.3,32.09 123.17,32.01C123.05,31.94 122.93,31.87 122.82,31.79C122.71,31.72 122.6,31.64 122.49,31.56C122.37,31.48 122.25,31.41 122.13,31.33C122,31.25 121.87,31.18 121.73,31.1C121.59,31.02 121.43,30.95 121.28,30.87C121.12,30.79 120.96,30.72 120.8,30.64C120.64,30.56 120.46,30.49 120.3,30.41C120.14,30.33 119.98,30.26 119.83,30.18C119.69,30.11 119.55,30.03 119.42,29.95C119.31,29.88 119.2,29.81 119.11,29.73C119.03,29.66 118.95,29.58 118.9,29.5C118.85,29.43 118.83,29.35 118.81,29.27C118.79,29.19 118.79,29.12 118.79,29.04C118.79,28.96 118.82,28.89 118.83,28.81C118.85,28.73 118.86,28.66 118.88,28.58C118.89,28.5 118.91,28.43 118.92,28.35C118.93,28.27 118.94,28.2 118.94,28.12C118.94,28.04 118.94,27.97 118.94,27.89C118.94,27.82 118.94,27.74 118.93,27.67C118.92,27.59 118.91,27.52 118.9,27.44C118.88,27.36 118.87,27.29 118.84,27.21C118.81,27.13 118.77,27.05 118.72,26.98C118.67,26.9 118.61,26.83 118.54,26.75C118.47,26.67 118.4,26.6 118.32,26.52C118.24,26.44 118.16,26.37 118.08,26.29C118,26.21 117.92,26.14 117.85,26.06C117.79,25.99 117.73,25.91 117.68,25.83C117.63,25.76 117.6,25.68 117.56,25.6C117.53,25.53 117.5,25.45 117.47,25.38C117.44,25.3 117.42,25.23 117.39,25.15C117.36,25.07 117.34,25 117.3,24.92C117.26,24.84 117.22,24.77 117.17,24.69C117.12,24.61 117.08,24.54 117.02,24.46C116.96,24.38 116.9,24.31 116.83,24.23C116.76,24.15 116.69,24.08 116.61,24C116.53,23.92 116.45,23.85 116.37,23.77C116.29,23.69 116.21,23.62 116.14,23.54C116.07,23.47 116,23.4 115.93,23.32C115.87,23.25 115.8,23.17 115.75,23.09C115.7,23.01 115.65,22.94 115.61,22.86C115.57,22.78 115.55,22.71 115.52,22.63Q115.5,22.55 115.46,22.4L115.4,22.4" style="vector-effect: non-scaling-stroke; stroke-width: 2px; stroke: rgb(255, 165, 0); stroke-opacity: 1; fill: rgb(255, 165, 0); fill-opacity: 0.5;"/><path class="violin" d="M288.5,123.6L288.81,123.6Q289.02,123.43 289.16,123.36C289.33,123.27 289.53,123.2 289.76,123.13C290.04,123.04 290.36,122.96 290.71,122.89C291.12,122.8 291.59,122.72 292.08,122.65C292.64,122.57 293.26,122.49 293.89,122.42C294.58,122.34 295.33,122.26 296.08,122.18C296.88,122.1 297.71,122.02 298.55,121.94C299.42,121.86 300.31,121.79 301.19,121.71C302.08,121.63 302.99,121.55 303.88,121.47C304.77,121.39 305.66,121.31 306.53,121.23C307.39,121.15 308.23,121.08 309.07,121C309.89,120.92 310.69,120.84 311.49,120.76C312.28,120.68 313.05,120.6 313.83,120.52C314.61,120.44 315.39,120.37 316.18,120.29C317,120.21 317.82,120.13 318.67,120.05C319.55,119.97 320.46,119.89 321.38,119.81C322.35,119.73 323.35,119.66 324.35,119.58C325.38,119.5 326.44,119.42 327.49,119.34C328.55,119.26 329.63,119.18 330.69,119.1C331.73,119.02 332.77,118.95 333.78,118.87C334.74,118.79 335.7,118.71 336.61,118.63C337.46,118.55 338.28,118.47 339.06,118.39C339.77,118.32 340.45,118.24 341.08,118.16C341.63,118.09 342.15,118.01 342.61,117.92C343,117.85 343.37,117.77 343.68,117.68C343.93,117.61 344.16,117.54 344.34,117.45C344.47,117.38 344.59,117.3 344.66,117.21C344.71,117.14 344.76,117.05 344.75,116.97C344.74,116.89 344.69,116.81 344.62,116.74C344.53,116.65 344.4,116.57 344.25,116.5C344.06,116.41 343.83,116.33 343.58,116.26C343.26,116.17 342.87,116.1 342.46,116.03C341.96,115.94 341.4,115.86 340.81,115.79C340.12,115.7 339.35,115.62 338.56,115.55C337.67,115.47 336.7,115.4 335.72,115.32C334.66,115.24 333.54,115.16 332.42,115.08C331.25,115 330.03,114.92 328.83,114.84C327.62,114.76 326.38,114.69 325.17,114.61C323.98,114.53 322.78,114.45 321.61,114.37C320.48,114.29 319.37,114.21 318.28,114.13C317.24,114.05 316.21,113.98 315.21,113.9C314.25,113.82 313.3,113.74 312.38,113.66C311.49,113.58 310.62,113.5 309.77,113.42C308.96,113.34 308.16,113.27 307.39,113.19C306.67,113.11 305.96,113.03 305.3,112.95C304.7,112.87 304.11,112.79 303.58,112.71C303.11,112.64 302.67,112.57 302.27,112.48C301.92,112.41 301.61,112.33 301.31,112.24C301.04,112.16 300.81,112.08 300.56,112C300.32,111.92 300.08,111.85 299.83,111.77C299.56,111.69 299.28,111.61 298.98,111.53C298.65,111.45 298.3,111.37 297.95,111.29C297.57,111.21 297.17,111.14 296.78,111.06C296.38,110.98 295.97,110.9 295.58,110.82C295.2,110.74 294.82,110.66 294.47,110.58C294.15,110.5 293.83,110.43 293.54,110.35C293.28,110.28 293.03,110.2 292.81,110.11C292.62,110.03 292.44,109.95 292.28,109.87C292.14,109.8 292.02,109.72 291.91,109.64C291.82,109.57 291.74,109.48 291.67,109.4C291.61,109.32 291.56,109.24 291.53,109.16C291.5,109.08 291.48,109.01 291.47,108.93C291.46,108.85 291.45,108.77 291.45,108.69C291.45,108.61 291.46,108.54 291.46,108.46C291.46,108.38 291.46,108.3 291.45,108.22C291.44,108.14 291.43,108.06 291.4,107.98C291.37,107.9 291.33,107.83 291.29,107.75C291.24,107.67 291.18,107.59 291.12,107.51C291.06,107.43 290.99,107.35 290.92,107.27C290.85,107.19 290.77,107.12 290.69,107.04C290.61,106.96 290.53,106.88 290.46,106.8C290.39,106.72 290.32,106.64 290.25,106.56C290.18,106.48 290.12,106.41 290.06,106.33C290.01,106.25 289.96,106.17 289.92,106.09C289.88,106.01 289.85,105.93 289.83,105.85C289.81,105.77 289.79,105.7 289.78,105.62C289.77,105.54 289.76,105.46 289.75,105.38C289.74,105.3 289.74,105.22 289.73,105.14C289.73,105.06 289.72,104.99 289.72,104.91C289.72,104.83 289.71,104.75 289.71,104.67C289.71,104.59 289.72,104.51 289.74,104.43C289.75,104.35 289.78,104.28 289.8,104.2C289.82,104.12 289.85,104.04 289.87,103.96C289.89,103.88 289.93,103.8 289.94,103.72C289.95,103.64 289.96,103.57 289.96,103.49C289.96,103.41 289.94,103.33 289.92,103.25C289.9,103.17 289.87,103.09 289.83,103.01C289.79,102.93 289.74,102.86 289.69,102.78C289.64,102.7 289.58,102.62 289.52,102.54C289.46,102.46 289.4,102.38 289.34,102.3C289.28,102.22 289.2,102.15 289.14,102.07C289.08,101.99 289.02,101.91 288.96,101.83C288.91,101.75 288.86,101.67 288.81,101.59C288.77,101.51 288.73,101.44 288.69,101.36C288.66,101.28 288.62,101.2 288.6,101.12Q288.58,101.04 288.55,100.88L288.5,100.88" style="vector-effect: non-scaling-stroke; stroke-width: 2px; stroke: rgb(255, 165, 0); stroke-opacity: 1; fill: rgb(255, 165, 0); fill-opacity: 0.5;"/><path class="violin" d="M461.6,363.17L461.83,363.17Q461.99,363.07 462.09,363.03C462.22,362.97 462.38,362.93 462.56,362.88C462.79,362.82 463.06,362.78 463.36,362.73C463.72,362.67 464.14,362.63 464.58,362.58C465.11,362.52 465.7,362.48 466.32,362.43C467.03,362.38 467.81,362.34 468.62,362.29C469.52,362.24 470.48,362.19 471.47,362.14C472.53,362.09 473.65,362.04 474.78,361.99C475.97,361.94 477.2,361.89 478.43,361.84C479.7,361.79 480.99,361.74 482.28,361.69C483.58,361.64 484.9,361.59 486.21,361.54C487.53,361.49 488.86,361.45 490.2,361.4C491.57,361.35 492.94,361.3 494.35,361.25C495.8,361.2 497.27,361.15 498.79,361.1C500.38,361.05 502.02,361 503.69,360.95C505.45,360.9 507.26,360.85 509.09,360.8C510.98,360.75 512.92,360.71 514.84,360.66C516.76,360.61 518.71,360.56 520.59,360.51C522.39,360.46 524.2,360.41 525.89,360.36C527.43,360.31 528.94,360.26 530.3,360.21C531.48,360.16 532.62,360.12 533.61,360.06C534.43,360.01 535.18,359.96 535.84,359.91C536.38,359.87 536.84,359.82 537.3,359.77C537.7,359.72 538.04,359.67 538.43,359.62C538.85,359.57 539.26,359.52 539.72,359.47C540.25,359.42 540.82,359.37 541.42,359.32C542.08,359.27 542.82,359.22 543.52,359.17C544.23,359.12 545,359.08 545.67,359.03C546.27,358.98 546.91,358.94 547.37,358.88C547.68,358.84 548.15,358.79 548.15,358.73C548.15,358.69 547.92,358.62 547.73,358.58C547.37,358.5 546.73,358.47 546.14,358.43C545.4,358.37 544.52,358.34 543.65,358.29C542.7,358.24 541.67,358.19 540.68,358.14C539.69,358.09 538.67,358.04 537.7,357.99C536.78,357.94 535.87,357.89 535.02,357.84C534.24,357.79 533.49,357.74 532.78,357.69C532.13,357.64 531.53,357.59 530.92,357.54C530.33,357.49 529.77,357.45 529.16,357.4C528.51,357.35 527.85,357.3 527.13,357.25C526.31,357.2 525.45,357.15 524.52,357.1C523.47,357.05 522.33,357 521.15,356.95C519.86,356.9 518.48,356.85 517.1,356.8C515.65,356.75 514.13,356.71 512.63,356.66C511.12,356.61 509.57,356.56 508.07,356.51C506.6,356.46 505.13,356.41 503.69,356.36C502.29,356.31 500.91,356.26 499.55,356.21C498.22,356.16 496.91,356.11 495.61,356.06C494.33,356.01 493.05,355.97 491.79,355.92C490.55,355.87 489.32,355.82 488.11,355.77C486.94,355.72 485.77,355.67 484.64,355.62C483.57,355.57 482.52,355.52 481.51,355.47C480.57,355.42 479.65,355.37 478.77,355.32C477.95,355.27 477.17,355.22 476.4,355.17C475.68,355.12 474.98,355.08 474.29,355.03C473.63,354.98 472.99,354.93 472.36,354.88C471.74,354.83 471.14,354.78 470.54,354.73C469.96,354.68 469.39,354.63 468.84,354.58C468.32,354.53 467.8,354.48 467.31,354.43C466.86,354.38 466.42,354.34 466.02,354.29C465.66,354.24 465.32,354.19 465,354.14C464.72,354.09 464.47,354.04 464.23,353.99C464.03,353.94 463.84,353.89 463.67,353.84C463.52,353.79 463.38,353.74 463.25,353.69C463.13,353.64 463.01,353.6 462.9,353.55C462.8,353.5 462.7,353.45 462.6,353.4C462.51,353.35 462.42,353.3 462.33,353.25C462.25,353.2 462.17,353.15 462.1,353.1C462.03,353.05 461.97,353 461.91,352.95C461.86,352.9 461.82,352.85 461.78,352.8Q461.75,352.75 461.69,352.66L461.6,352.66" style="vector-effect: non-scaling-stroke; stroke-width: 2px; stroke: rgb(255, 165, 0); stroke-opacity: 1; fill: rgb(255, 165, 0); fill-opacity: 0.5;"/><path class="meanline" d="M169.7136688232422,37.59H115.4" style="fill: none; vector-effect: non-scaling-stroke; stroke-width: 2px; stroke-dasharray: 4px, 2px; stroke: rgb(255, 165, 0); stroke-opacity: 1;"/><path class="meanline" d="M344.22869873046875,116.49H288.5" style="fill: none; vector-effect: non-scaling-stroke; stroke-width: 2px; stroke-dasharray: 4px, 2px; stroke: rgb(255, 165, 0); stroke-opacity: 1;"/><path class="meanline" d="M547.7763671875,358.59H461.6" style="fill: none; vector-effect: non-scaling-stroke; stroke-width: 2px; stroke-dasharray: 4px, 2px; stroke: rgb(255, 165, 0); stroke-opacity: 1;"/><g class="points"><path class="point" transform="translate(115.4,30.93)" d="M3,0A3,3 0 1,1 0,-3A3,3 0 0,1 3,0Z" style="opacity: 1; stroke-width: 0px; fill: rgb(255, 165, 0); fill-opacity: 1;"/><path class="point" transform="translate(115.4,30.93)" d="M3,0A3,3 0 1,1 0,-3A3,3 0 0,1 3,0Z" style="opacity: 1; stroke-width: 0px; fill: rgb(255, 165, 0); fill-opacity: 1;"/><path class="point" transform="translate(115.4,30.85)" d="M3,0A3,3 0 1,1 0,-3A3,3 0 0,1 3,0Z" style="opacity: 1; stroke-width: 0px; fill: rgb(255, 165, 0); fill-opacity: 1;"/><path class="point" transform="translate(115.4,30.81)" d="M3,0A3,3 0 1,1 0,-3A3,3 0 0,1 3,0Z" style="opacity: 1; stroke-width: 0px; fill: rgb(255, 165, 0); fill-opacity: 1;"/><path class="point" transform="translate(115.4,30.78)" d="M3,0A3,3 0 1,1 0,-3A3,3 0 0,1 3,0Z" style="opacity: 1; stroke-width: 0px; fill: rgb(255, 165, 0); fill-opacity: 1;"/><path class="point" transform="translate(115.4,30.77)" d="M3,0A3,3 0 1,1 0,-3A3,3 0 0,1 3,0Z" style="opacity: 1; stroke-width: 0px; fill: rgb(255, 165, 0); fill-opacity: 1;"/><path class="point" transform="translate(115.4,30.55)" d="M3,0A3,3 0 1,1 0,-3A3,3 0 0,1 3,0Z" style="opacity: 1; stroke-width: 0px; fill: rgb(255, 165, 0); fill-opacity: 1;"/><path class="point" transform="translate(115.4,30.45)" d="M3,0A3,3 0 1,1 0,-3A3,3 0 0,1 3,0Z" style="opacity: 1; stroke-width: 0px; fill: rgb(255, 165, 0); fill-opacity: 1;"/><path class="point" transform="translate(115.4,30.28)" d="M3,0A3,3 0 1,1 0,-3A3,3 0 0,1 3,0Z" style="opacity: 1; stroke-width: 0px; fill: rgb(255, 165, 0); fill-opacity: 1;"/><path class="point" transform="translate(115.4,30.26)" d="M3,0A3,3 0 1,1 0,-3A3,3 0 0,1 3,0Z" style="opacity: 1; stroke-width: 0px; fill: rgb(255, 165, 0); fill-opacity: 1;"/><path class="point" transform="translate(115.4,30.14)" d="M3,0A3,3 0 1,1 0,-3A3,3 0 0,1 3,0Z" style="opacity: 1; stroke-width: 0px; fill: rgb(255, 165, 0); fill-opacity: 1;"/><path class="point" transform="translate(115.4,30.13)" d="M3,0A3,3 0 1,1 0,-3A3,3 0 0,1 3,0Z" style="opacity: 1; stroke-width: 0px; fill: rgb(255, 165, 0); fill-opacity: 1;"/><path class="point" transform="translate(115.4,30.12)" d="M3,0A3,3 0 1,1 0,-3A3,3 0 0,1 3,0Z" style="opacity: 1; stroke-width: 0px; fill: rgb(255, 165, 0); fill-opacity: 1;"/><path class="point" transform="translate(115.4,29.87)" d="M3,0A3,3 0 1,1 0,-3A3,3 0 0,1 3,0Z" style="opacity: 1; stroke-width: 0px; fill: rgb(255, 165, 0); fill-opacity: 1;"/><path class="point" transform="translate(115.4,29.81)" d="M3,0A3,3 0 1,1 0,-3A3,3 0 0,1 3,0Z" style="opacity: 1; stroke-width: 0px; fill: rgb(255, 165, 0); fill-opacity: 1;"/><path class="point" transform="translate(115.4,29.8)" d="M3,0A3,3 0 1,1 0,-3A3,3 0 0,1 3,0Z" style="opacity: 1; stroke-width: 0px; fill: rgb(255, 165, 0); fill-opacity: 1;"/><path class="point" transform="translate(115.4,29.32)" d="M3,0A3,3 0 1,1 0,-3A3,3 0 0,1 3,0Z" style="opacity: 1; stroke-width: 0px; fill: rgb(255, 165, 0); fill-opacity: 1;"/><path class="point" transform="translate(115.4,29.26)" d="M3,0A3,3 0 1,1 0,-3A3,3 0 0,1 3,0Z" style="opacity: 1; stroke-width: 0px; fill: rgb(255, 165, 0); fill-opacity: 1;"/><path class="point" transform="translate(115.4,29.15)" d="M3,0A3,3 0 1,1 0,-3A3,3 0 0,1 3,0Z" style="opacity: 1; stroke-width: 0px; fill: rgb(255, 165, 0); fill-opacity: 1;"/><path class="point" transform="translate(115.4,29.08)" d="M3,0A3,3 0 1,1 0,-3A3,3 0 0,1 3,0Z" style="opacity: 1; stroke-width: 0px; fill: rgb(255, 165, 0); fill-opacity: 1;"/><path class="point" transform="translate(115.4,29.06)" d="M3,0A3,3 0 1,1 0,-3A3,3 0 0,1 3,0Z" style="opacity: 1; stroke-width: 0px; fill: rgb(255, 165, 0); fill-opacity: 1;"/><path class="point" transform="translate(115.4,28.69)" d="M3,0A3,3 0 1,1 0,-3A3,3 0 0,1 3,0Z" style="opacity: 1; stroke-width: 0px; fill: rgb(255, 165, 0); fill-opacity: 1;"/><path class="point" transform="translate(115.4,28.55)" d="M3,0A3,3 0 1,1 0,-3A3,3 0 0,1 3,0Z" style="opacity: 1; stroke-width: 0px; fill: rgb(255, 165, 0); fill-opacity: 1;"/><path class="point" transform="translate(115.4,28.53)" d="M3,0A3,3 0 1,1 0,-3A3,3 0 0,1 3,0Z" style="opacity: 1; stroke-width: 0px; fill: rgb(255, 165, 0); fill-opacity: 1;"/><path class="point" transform="translate(115.4,28.51)" d="M3,0A3,3 0 1,1 0,-3A3,3 0 0,1 3,0Z" style="opacity: 1; stroke-width: 0px; fill: rgb(255, 165, 0); fill-opacity: 1;"/><path class="point" transform="translate(115.4,28.51)" d="M3,0A3,3 0 1,1 0,-3A3,3 0 0,1 3,0Z" style="opacity: 1; stroke-width: 0px; fill: rgb(255, 165, 0); fill-opacity: 1;"/><path class="point" transform="translate(115.4,28.4)" d="M3,0A3,3 0 1,1 0,-3A3,3 0 0,1 3,0Z" style="opacity: 1; stroke-width: 0px; fill: rgb(255, 165, 0); fill-opacity: 1;"/><path class="point" transform="translate(115.4,28.22)" d="M3,0A3,3 0 1,1 0,-3A3,3 0 0,1 3,0Z" style="opacity: 1; stroke-width: 0px; fill: rgb(255, 165, 0); fill-opacity: 1;"/><path class="point" transform="translate(115.4,28.09)" d="M3,0A3,3 0 1,1 0,-3A3,3 0 0,1 3,0Z" style="opacity: 1; stroke-width: 0px; fill: rgb(255, 165, 0); fill-opacity: 1;"/><path class="point" transform="translate(115.4,27.84)" d="M3,0A3,3 0 1,1 0,-3A3,3 0 0,1 3,0Z" style="opacity: 1; stroke-width: 0px; fill: rgb(255, 165, 0); fill-opacity: 1;"/><path class="point" transform="translate(115.4,27.84)" d="M3,0A3,3 0 1,1 0,-3A3,3 0 0,1 3,0Z" style="opacity: 1; stroke-width: 0px; fill: rgb(255, 165, 0); fill-opacity: 1;"/><path class="point" transform="translate(115.4,27.69)" d="M3,0A3,3 0 1,1 0,-3A3,3 0 0,1 3,0Z" style="opacity: 1; stroke-width: 0px; fill: rgb(255, 165, 0); fill-opacity: 1;"/><path class="point" transform="translate(115.4,27.64)" d="M3,0A3,3 0 1,1 0,-3A3,3 0 0,1 3,0Z" style="opacity: 1; stroke-width: 0px; fill: rgb(255, 165, 0); fill-opacity: 1;"/><path class="point" transform="translate(115.4,27.47)" d="M3,0A3,3 0 1,1 0,-3A3,3 0 0,1 3,0Z" style="opacity: 1; stroke-width: 0px; fill: rgb(255, 165, 0); fill-opacity: 1;"/><path class="point" transform="translate(115.4,27.27)" d="M3,0A3,3 0 1,1 0,-3A3,3 0 0,1 3,0Z" style="opacity: 1; stroke-width: 0px; fill: rgb(255, 165, 0); fill-opacity: 1;"/><path class="point" transform="translate(115.4,27.18)" d="M3,0A3,3 0 1,1 0,-3A3,3 0 0,1 3,0Z" style="opacity: 1; stroke-width: 0px; fill: rgb(255, 165, 0); fill-opacity: 1;"/><path class="point" transform="translate(115.4,27)" d="M3,0A3,3 0 1,1 0,-3A3,3 0 0,1 3,0Z" style="opacity: 1; stroke-width: 0px; fill: rgb(255, 165, 0); fill-opacity: 1;"/><path class="point" transform="translate(115.4,26.99)" d="M3,0A3,3 0 1,1 0,-3A3,3 0 0,1 3,0Z" style="opacity: 1; stroke-width: 0px; fill: rgb(255, 165, 0); fill-opacity: 1;"/><path class="point" transform="translate(115.4,26.94)" d="M3,0A3,3 0 1,1 0,-3A3,3 0 0,1 3,0Z" style="opacity: 1; stroke-width: 0px; fill: rgb(255, 165, 0); fill-opacity: 1;"/><path class="point" transform="translate(115.4,26.91)" d="M3,0A3,3 0 1,1 0,-3A3,3 0 0,1 3,0Z" style="opacity: 1; stroke-width: 0px; fill: rgb(255, 165, 0); fill-opacity: 1;"/><path class="point" transform="translate(115.4,26.87)" d="M3,0A3,3 0 1,1 0,-3A3,3 0 0,1 3,0Z" style="opacity: 1; stroke-width: 0px; fill: rgb(255, 165, 0); fill-opacity: 1;"/><path class="point" transform="translate(115.4,26.64)" d="M3,0A3,3 0 1,1 0,-3A3,3 0 0,1 3,0Z" style="opacity: 1; stroke-width: 0px; fill: rgb(255, 165, 0); fill-opacity: 1;"/><path class="point" transform="translate(115.4,26.56)" d="M3,0A3,3 0 1,1 0,-3A3,3 0 0,1 3,0Z" style="opacity: 1; stroke-width: 0px; fill: rgb(255, 165, 0); fill-opacity: 1;"/><path class="point" transform="translate(115.4,26.28)" d="M3,0A3,3 0 1,1 0,-3A3,3 0 0,1 3,0Z" style="opacity: 1; stroke-width: 0px; fill: rgb(255, 165, 0); fill-opacity: 1;"/><path class="point" transform="translate(115.4,26.16)" d="M3,0A3,3 0 1,1 0,-3A3,3 0 0,1 3,0Z" style="opacity: 1; stroke-width: 0px; fill: rgb(255, 165, 0); fill-opacity: 1;"/><path class="point" transform="translate(115.4,25.86)" d="M3,0A3,3 0 1,1 0,-3A3,3 0 0,1 3,0Z" style="opacity: 1; stroke-width: 0px; fill: rgb(255, 165, 0); fill-opacity: 1;"/><path class="point" transform="translate(115.4,25.83)" d="M3,0A3,3 0 1,1 0,-3A3,3 0 0,1 3,0Z" style="opacity: 1; stroke-width: 0px; fill: rgb(255, 165, 0); fill-opacity: 1;"/><path class="point" transform="translate(115.4,25.38)" d="M3,0A3,3 0 1,1 0,-3A3,3 0 0,1 3,0Z" style="opacity: 1; stroke-width: 0px; fill: rgb(255, 165, 0); fill-opacity: 1;"/><path class="point" transform="translate(115.4,25.16)" d="M3,0A3,3 0 1,1 0,-3A3,3 0 0,1 3,0Z" style="opacity: 1; stroke-width: 0px; fill: rgb(255, 165, 0); fill-opacity: 1;"/><path class="point" transform="translate(115.4,25.13)" d="M3,0A3,3 0 1,1 0,-3A3,3 0 0,1 3,0Z" style="opacity: 1; stroke-width: 0px; fill: rgb(255, 165, 0); fill-opacity: 1;"/><path class="point" transform="translate(115.4,25.02)" d="M3,0A3,3 0 1,1 0,-3A3,3 0 0,1 3,0Z" style="opacity: 1; stroke-width: 0px; fill: rgb(255, 165, 0); fill-opacity: 1;"/><path class="point" transform="translate(115.4,24.89)" d="M3,0A3,3 0 1,1 0,-3A3,3 0 0,1 3,0Z" style="opacity: 1; stroke-width: 0px; fill: rgb(255, 165, 0); fill-opacity: 1;"/><path class="point" transform="translate(115.4,24.41)" d="M3,0A3,3 0 1,1 0,-3A3,3 0 0,1 3,0Z" style="opacity: 1; stroke-width: 0px; fill: rgb(255, 165, 0); fill-opacity: 1;"/><path class="point" transform="translate(115.4,24.33)" d="M3,0A3,3 0 1,1 0,-3A3,3 0 0,1 3,0Z" style="opacity: 1; stroke-width: 0px; fill: rgb(255, 165, 0); fill-opacity: 1;"/><path class="point" transform="translate(115.4,23.98)" d="M3,0A3,3 0 1,1 0,-3A3,3 0 0,1 3,0Z" style="opacity: 1; stroke-width: 0px; fill: rgb(255, 165, 0); fill-opacity: 1;"/><path class="point" transform="translate(115.4,23.79)" d="M3,0A3,3 0 1,1 0,-3A3,3 0 0,1 3,0Z" style="opacity: 1; stroke-width: 0px; fill: rgb(255, 165, 0); fill-opacity: 1;"/></g><g class="points"><path class="point" transform="translate(288.5,109.51)" d="M3,0A3,3 0 1,1 0,-3A3,3 0 0,1 3,0Z" style="opacity: 1; stroke-width: 0px; fill: rgb(255, 165, 0); fill-opacity: 1;"/><path class="point" transform="translate(288.5,109.49)" d="M3,0A3,3 0 1,1 0,-3A3,3 0 0,1 3,0Z" style="opacity: 1; stroke-width: 0px; fill: rgb(255, 165, 0); fill-opacity: 1;"/><path class="point" transform="translate(288.5,109.31)" d="M3,0A3,3 0 1,1 0,-3A3,3 0 0,1 3,0Z" style="opacity: 1; stroke-width: 0px; fill: rgb(255, 165, 0); fill-opacity: 1;"/><path class="point" transform="translate(288.5,109.2)" d="M3,0A3,3 0 1,1 0,-3A3,3 0 0,1 3,0Z" style="opacity: 1; stroke-width: 0px; fill: rgb(255, 165, 0); fill-opacity: 1;"/><path class="point" transform="translate(288.5,108.82)" d="M3,0A3,3 0 1,1 0,-3A3,3 0 0,1 3,0Z" style="opacity: 1; stroke-width: 0px; fill: rgb(255, 165, 0); fill-opacity: 1;"/><path class="point" transform="translate(288.5,108.74)" d="M3,0A3,3 0 1,1 0,-3A3,3 0 0,1 3,0Z" style="opacity: 1; stroke-width: 0px; fill: rgb(255, 165, 0); fill-opacity: 1;"/><path class="point" transform="translate(288.5,108.61)" d="M3,0A3,3 0 1,1 0,-3A3,3 0 0,1 3,0Z" style="opacity: 1; stroke-width: 0px; fill: rgb(255, 165, 0); fill-opacity: 1;"/><path class="point" transform="translate(288.5,108.5)" d="M3,0A3,3 0 1,1 0,-3A3,3 0 0,1 3,0Z" style="opacity: 1; stroke-width: 0px; fill: rgb(255, 165, 0); fill-opacity: 1;"/><path class="point" transform="translate(288.5,108.35)" d="M3,0A3,3 0 1,1 0,-3A3,3 0 0,1 3,0Z" style="opacity: 1; stroke-width: 0px; fill: rgb(255, 165, 0); fill-opacity: 1;"/><path class="point" transform="translate(288.5,108.18)" d="M3,0A3,3 0 1,1 0,-3A3,3 0 0,1 3,0Z" style="opacity: 1; stroke-width: 0px; fill: rgb(255, 165, 0); fill-opacity: 1;"/><path class="point" transform="translate(288.5,108.15)" d="M3,0A3,3 0 1,1 0,-3A3,3 0 0,1 3,0Z" style="opacity: 1; stroke-width: 0px; fill: rgb(255, 165, 0); fill-opacity: 1;"/><path class="point" transform="translate(288.5,108.05)" d="M3,0A3,3 0 1,1 0,-3A3,3 0 0,1 3,0Z" style="opacity: 1; stroke-width: 0px; fill: rgb(255, 165, 0); fill-opacity: 1;"/><path class="point" transform="translate(288.5,107.9)" d="M3,0A3,3 0 1,1 0,-3A3,3 0 0,1 3,0Z" style="opacity: 1; stroke-width: 0px; fill: rgb(255, 165, 0); fill-opacity: 1;"/><path class="point" transform="translate(288.5,107.69)" d="M3,0A3,3 0 1,1 0,-3A3,3 0 0,1 3,0Z" style="opacity: 1; stroke-width: 0px; fill: rgb(255, 165, 0); fill-opacity: 1;"/><path class="point" transform="translate(288.5,107.66)" d="M3,0A3,3 0 1,1 0,-3A3,3 0 0,1 3,0Z" style="opacity: 1; stroke-width: 0px; fill: rgb(255, 165, 0); fill-opacity: 1;"/><path class="point" transform="translate(288.5,107.57)" d="M3,0A3,3 0 1,1 0,-3A3,3 0 0,1 3,0Z" style="opacity: 1; stroke-width: 0px; fill: rgb(255, 165, 0); fill-opacity: 1;"/><path class="point" transform="translate(288.5,107.36)" d="M3,0A3,3 0 1,1 0,-3A3,3 0 0,1 3,0Z" style="opacity: 1; stroke-width: 0px; fill: rgb(255, 165, 0); fill-opacity: 1;"/><path class="point" transform="translate(288.5,107.26)" d="M3,0A3,3 0 1,1 0,-3A3,3 0 0,1 3,0Z" style="opacity: 1; stroke-width: 0px; fill: rgb(255, 165, 0); fill-opacity: 1;"/><path class="point" transform="translate(288.5,106.93)" d="M3,0A3,3 0 1,1 0,-3A3,3 0 0,1 3,0Z" style="opacity: 1; stroke-width: 0px; fill: rgb(255, 165, 0); fill-opacity: 1;"/><path class="point" transform="translate(288.5,106.64)" d="M3,0A3,3 0 1,1 0,-3A3,3 0 0,1 3,0Z" style="opacity: 1; stroke-width: 0px; fill: rgb(255, 165, 0); fill-opacity: 1;"/><path class="point" transform="translate(288.5,106.59)" d="M3,0A3,3 0 1,1 0,-3A3,3 0 0,1 3,0Z" style="opacity: 1; stroke-width: 0px; fill: rgb(255, 165, 0); fill-opacity: 1;"/><path class="point" transform="translate(288.5,106.47)" d="M3,0A3,3 0 1,1 0,-3A3,3 0 0,1 3,0Z" style="opacity: 1; stroke-width: 0px; fill: rgb(255, 165, 0); fill-opacity: 1;"/><path class="point" transform="translate(288.5,105.92)" d="M3,0A3,3 0 1,1 0,-3A3,3 0 0,1 3,0Z" style="opacity: 1; stroke-width: 0px; fill: rgb(255, 165, 0); fill-opacity: 1;"/><path class="point" transform="translate(288.5,105.3)" d="M3,0A3,3 0 1,1 0,-3A3,3 0 0,1 3,0Z" style="opacity: 1; stroke-width: 0px; fill: rgb(255, 165, 0); fill-opacity: 1;"/><path class="point" transform="translate(288.5,105.25)" d="M3,0A3,3 0 1,1 0,-3A3,3 0 0,1 3,0Z" style="opacity: 1; stroke-width: 0px; fill: rgb(255, 165, 0); fill-opacity: 1;"/><path class="point" transform="translate(288.5,105)" d="M3,0A3,3 0 1,1 0,-3A3,3 0 0,1 3,0Z" style="opacity: 1; stroke-width: 0px; fill: rgb(255, 165, 0); fill-opacity: 1;"/><path class="point" transform="translate(288.5,104.82)" d="M3,0A3,3 0 1,1 0,-3A3,3 0 0,1 3,0Z" style="opacity: 1; stroke-width: 0px; fill: rgb(255, 165, 0); fill-opacity: 1;"/><path class="point" transform="translate(288.5,103.79)" d="M3,0A3,3 0 1,1 0,-3A3,3 0 0,1 3,0Z" style="opacity: 1; stroke-width: 0px; fill: rgb(255, 165, 0); fill-opacity: 1;"/><path class="point" transform="translate(288.5,103.71)" d="M3,0A3,3 0 1,1 0,-3A3,3 0 0,1 3,0Z" style="opacity: 1; stroke-width: 0px; fill: rgb(255, 165, 0); fill-opacity: 1;"/><path class="point" transform="translate(288.5,103.66)" d="M3,0A3,3 0 1,1 0,-3A3,3 0 0,1 3,0Z" style="opacity: 1; stroke-width: 0px; fill: rgb(255, 165, 0); fill-opacity: 1;"/><path class="point" transform="translate(288.5,103.59)" d="M3,0A3,3 0 1,1 0,-3A3,3 0 0,1 3,0Z" style="opacity: 1; stroke-width: 0px; fill: rgb(255, 165, 0); fill-opacity: 1;"/><path class="point" transform="translate(288.5,103.35)" d="M3,0A3,3 0 1,1 0,-3A3,3 0 0,1 3,0Z" style="opacity: 1; stroke-width: 0px; fill: rgb(255, 165, 0); fill-opacity: 1;"/><path class="point" transform="translate(288.5,102.78)" d="M3,0A3,3 0 1,1 0,-3A3,3 0 0,1 3,0Z" style="opacity: 1; stroke-width: 0px; fill: rgb(255, 165, 0); fill-opacity: 1;"/><path class="point" transform="translate(288.5,102.55)" d="M3,0A3,3 0 1,1 0,-3A3,3 0 0,1 3,0Z" style="opacity: 1; stroke-width: 0px; fill: rgb(255, 165, 0); fill-opacity: 1;"/><path class="point" transform="translate(288.5,102.31)" d="M3,0A3,3 0 1,1 0,-3A3,3 0 0,1 3,0Z" style="opacity: 1; stroke-width: 0px; fill: rgb(255, 165, 0); fill-opacity: 1;"/></g><g class="points"><path class="point" transform="translate(461.6,353.55)" d="M3,0A3,3 0 1,1 0,-3A3,3 0 0,1 3,0Z" style="opacity: 1; stroke-width: 0px; fill: rgb(255, 165, 0); fill-opacity: 1;"/></g></g></g></g><g class="overplot"/><path class="xlines-above crisp" d="M0,0" style="fill: none;"/><path class="ylines-above crisp" d="M0,0" style="fill: none;"/><g class="overlines-above"/><g class="xaxislayer-above"><g class="xtick"><text text-anchor="middle" x="0" y="465" transform="translate(188.4,0)" style="font-family: Arial; font-size: 16px; fill: rgb(42, 63, 95); fill-opacity: 1; white-space: pre; opacity: 1;">MobileNetV2</text></g><g class="xtick"><text text-anchor="middle" x="0" y="465" transform="translate(361.5,0)" style="font-family: Arial; font-size: 16px; fill: rgb(42, 63, 95); fill-opacity: 1; white-space: pre; opacity: 1;">MobileNetV3 Large</text></g><g class="xtick"><text text-anchor="middle" x="0" y="465" transform="translate(534.6,0)" style="font-family: Arial; font-size: 16px; fill: rgb(42, 63, 95); fill-opacity: 1; white-space: pre; opacity: 1;">MobileNetV3 Small</text></g></g><g class="yaxislayer-above"><g class="ytick"><text text-anchor="end" x="72" y="5.6" transform="translate(0,446.04)" style="font-family: Arial; font-size: 16px; fill: rgb(42, 63, 95); fill-opacity: 1; white-space: pre; opacity: 1;">0.01</text></g><g class="ytick"><text text-anchor="end" x="72" y="5.6" style="font-family: Arial; font-size: 16px; fill: rgb(42, 63, 95); fill-opacity: 1; white-space: pre; opacity: 1;" transform="translate(0,399.95)">0.015</text></g><g class="ytick"><text text-anchor="end" x="72" y="5.6" style="font-family: Arial; font-size: 16px; fill: rgb(42, 63, 95); fill-opacity: 1; white-space: pre; opacity: 1;" transform="translate(0,353.86)">0.02</text></g><g class="ytick"><text text-anchor="end" x="72" y="5.6" style="font-family: Arial; font-size: 16px; fill: rgb(42, 63, 95); fill-opacity: 1; white-space: pre; opacity: 1;" transform="translate(0,307.77)">0.025</text></g><g class="ytick"><text text-anchor="end" x="72" y="5.6" style="font-family: Arial; font-size: 16px; fill: rgb(42, 63, 95); fill-opacity: 1; white-space: pre; opacity: 1;" transform="translate(0,261.69)">0.03</text></g><g class="ytick"><text text-anchor="end" x="72" y="5.6" style="font-family: Arial; font-size: 16px; fill: rgb(42, 63, 95); fill-opacity: 1; white-space: pre; opacity: 1;" transform="translate(0,215.6)">0.035</text></g><g class="ytick"><text text-anchor="end" x="72" y="5.6" style="font-family: Arial; font-size: 16px; fill: rgb(42, 63, 95); fill-opacity: 1; white-space: pre; opacity: 1;" transform="translate(0,169.51)">0.04</text></g><g class="ytick"><text text-anchor="end" x="72" y="5.6" style="font-family: Arial; font-size: 16px; fill: rgb(42, 63, 95); fill-opacity: 1; white-space: pre; opacity: 1;" transform="translate(0,123.43)">0.045</text></g><g class="ytick"><text text-anchor="end" x="72" y="5.6" style="font-family: Arial; font-size: 16px; fill: rgb(42, 63, 95); fill-opacity: 1; white-space: pre; opacity: 1;" transform="translate(0,77.34)">0.05</text></g><g class="ytick"><text text-anchor="end" x="72" y="5.6" style="font-family: Arial; font-size: 16px; fill: rgb(42, 63, 95); fill-opacity: 1; white-space: pre; opacity: 1;" transform="translate(0,31.25)">0.055</text></g></g><g class="overaxes-above"/></g></g><g class="polarlayer"/><g class="smithlayer"/><g class="ternarylayer"/><g class="geolayer"/><g class="funnelarealayer"/><g class="pielayer"/><g class="iciclelayer"/><g class="treemaplayer"/><g class="sunburstlayer"/><g class="glimages"/><defs id="topdefs-1f7196"><g class="clips"/><clipPath id="legend1f7196"><rect width="189" height="68" x="1" y="1"/></clipPath></defs><g class="layer-above"><g class="imagelayer"/><g class="shapelayer"/></g><g class="infolayer"><g class="legend" pointer-events="all" transform="translate(447.46000000000004,8.960000000000008)"><rect class="bg" shape-rendering="crispEdges" style="stroke: rgb(128, 128, 128); stroke-opacity: 1; fill: rgb(255, 255, 255); fill-opacity: 0.7; stroke-width: 1px;" width="190" height="69" x="0.5" y="0.5"/><g class="scrollbox" transform="" clip-path="url(#legend1f7196)"><g class="groups" transform=""><g class="traces" transform="translate(1,17.9)" style="opacity: 1;"><text class="legendtext" text-anchor="start" x="40" y="6.24" style="font-family: Arial; font-size: 16px; fill: rgb(42, 63, 95); fill-opacity: 1; white-space: pre;">TFLite</text><g class="layers" style="opacity: 1;"><g class="legendfill"/><g class="legendlines"/><g class="legendsymbols"><g class="legendpoints"><path class="legendbox" d="M6,6H-6V-6H6Z" transform="translate(20,0)" style="stroke-width: 2px; fill: rgb(0, 0, 255); fill-opacity: 0.5; stroke: rgb(0, 0, 255); stroke-opacity: 1;"/></g></g></g><rect class="legendtoggle" x="0" y="-11.9" width="183.203125" height="23.8" style="fill: rgb(0, 0, 0); fill-opacity: 0;"/></g></g><g class="groups" transform="translate(0,10)"><g class="traces" transform="translate(1,41.7)" style="opacity: 1;"><text class="legendtext" text-anchor="start" x="40" y="6.24" style="font-family: Arial; font-size: 16px; fill: rgb(42, 63, 95); fill-opacity: 1; white-space: pre;">Armnn NN Delegate</text><g class="layers" style="opacity: 1;"><g class="legendfill"/><g class="legendlines"/><g class="legendsymbols"><g class="legendpoints"><path class="legendbox" d="M6,6H-6V-6H6Z" transform="translate(20,0)" style="stroke-width: 2px; fill: rgb(255, 165, 0); fill-opacity: 0.5; stroke: rgb(255, 165, 0); stroke-opacity: 1;"/></g></g></g><rect class="legendtoggle" x="0" y="-11.9" width="183.203125" height="23.8" style="fill: rgb(0, 0, 0); fill-opacity: 0;"/></g></g></g><rect class="scrollbar" rx="20" ry="3" width="0" height="0" style="fill: rgb(128, 139, 164); fill-opacity: 1;" x="0" y="0"/></g><g class="g-gtitle"/><g class="g-xtitle" transform="translate(0,-5.175000000000011)"><text class="xtitle" x="361.5" y="500.175" text-anchor="middle" style="font-family: Arial; font-size: 24px; fill: rgb(42, 63, 95); opacity: 1; font-weight: normal; white-space: pre;">MobileNet Model FP32</text></g><g class="g-ytitle" transform="translate(21.8466796875,0)"><text class="ytitle" transform="rotate(-90,0.15312500000000284,224)" x="0.15312500000000284" y="224" text-anchor="middle" style="font-family: Arial; font-size: 24px; fill: rgb(42, 63, 95); opacity: 1; font-weight: normal; white-space: pre;">Latency [s]</text></g></g></svg>